<svg id="Layer_1" data-name="Layer 1" xmlns="http://www.w3.org/2000/svg" viewBox="0 0 1034.05 1038.01"><defs><style>.cls-1{fill:#29abe2;}.cls-2{fill:#0071bc;}</style></defs><title>ECL-PIC14</title><path class="cls-1" d="M987.12,553.28c21.44-1.11,42.87-2.31,64.31-3.28,5.61-.25,11.54,1.43,16.82.14,14.26-3.48,15.6,3.68,15.56,15.26q-.48,125.39,0,250.78c0,9.49-3.22,14.4-11.53,19.15-85.13,48.74-169.91,98.06-254.87,147.07-10.75,6.2-22,11.53-35.44,18.52V810.82c-3.75,1.08-6.47,1.19-8.34,2.51-55.85,39.28-117.56,65.75-183,84-2.89.8-5.89,1.7-8.83,1.67-9.56-.1-11.8,5-13.08,13.78-3.29,22.52,3.75,38.27,25.77,46.32a27.15,27.15,0,0,1,9,5.06c20.24,18.62,38.74,13.42,59.46-.94,22.07-15.28,46.45-27.22,71.7-41.7.35,5.8.83,10.25.85,14.71.14,26.85-.05,53.7.36,80.55.12,8.2-2.2,13.62-9.71,17.89-28.44,16.17-56.34,33.28-85,49.13-4.65,2.57-13.15,2.79-17.7.23-45.78-25.75-91-52.43-136.62-78.51-10-5.74-14.76-12.58-13.74-24.91,1.46-17.64.36-35.49,1-53.23.3-9.22-2-13.85-12.44-12.41a117.39,117.39,0,0,1-24.58.55c-8.13-.59-11.07,2.74-11,10.36.13,13.68,0,27.37,0,43.89-15.36-8.73-28.3-16-41.16-23.42-25.72-14.79-50.9-30.64-77.31-44.06-14-7.1-30-10-45.16-14.84-66.37-21.16-126.36-54.42-181.92-96-8.92-6.68-17.43-13.92-25.95-21.1A19,19,0,0,1,49.8,763c135.62,88.33,282.88,124.41,443.35,99.55C654.21,837.65,785.9,760.32,885.34,631.83,983.94,504.43,1027.23,358.92,1013,197c17.34,59.86,20.4,120.25,15.28,181.21a569.6,569.6,0,0,1-32.75,149.52c-3.09,8.43-5.39,17.15-8,25.73-1.76,2-4.24,3.74-5.17,6.09-22.59,57-56.14,107-95.44,153.69-5.74,6.82-8.91,17.42-9.58,26.55-1.42,19.34-.41,38.87-.4,58.32,0,12.29,0,24.58,0,38.3,5.08-1.64,8.53-2.15,11.34-3.76,31.3-17.94,62.7-35.72,93.5-54.49,4.35-2.65,8-10.29,8-15.65.49-66.51.3-133,.1-199.54C989.8,559.76,988.06,556.52,987.12,553.28Z" transform="translate(-49.8 -47.82)"/><path class="cls-2" d="M426,163.11c0,38,.16,71.67-.29,105.36,0,2.93-3.44,6.87-6.32,8.55-44.91,26.18-89.86,52.27-135.15,77.78-7.07,4-9.43,8.1-9.38,16q.5,83.81,0,167.6c-.07,9.62,2.37,12.31,12.52,12.07,43.25-1,86.54-1.09,129.81-.88,3,0,8.38,5,8.44,7.85.65,26.4.33,52.82.4,79.24,0,8.51-5.56,8.06-11.57,8-42-.2-84,0-126-.51-10.54-.14-14,2.35-13.71,13.75.78,35.05-.37,70.13.16,105.19.08,5.25,3.85,12.68,8.19,15.27,31,18.48,62.6,35.9,93.89,53.86,3.23,1.86,5.68,5.08,8.48,7.67l-1.5,3.84c-32.08-1.81-64.36-2-96.19-5.89-28.88-3.53-57.27-11.06-85.87-16.81-21.15-4.26-22.8-6.27-22.8-27.86q0-236.48-.24-472.93c0-10.52,3.32-16.18,12.38-21.32C263,258.3,334.5,217.15,406,176.08,411.74,172.79,417.11,168.91,426,163.11Z" transform="translate(-49.8 -47.82)"/><path class="cls-2" d="M734.32,213.19c-33.28-19.34-64-37.48-95.07-54.82-3.9-2.17-11-1.8-15.18.33-15.63,8.06-31.1,16.63-45.6,26.52-4.72,3.22-8.93,11-8.94,16.77q-.56,299.37.12,598.76c0,8.77-3.5,13.07-10.76,15-24.5,6.35-49.05,12.53-73.71,18.22-7.38,1.7-12.41-.95-12.18-10.23.44-18.12.15-36.27.15-54.4q0-307.83-.23-615.66c0-12.41,3.89-19.58,14.67-25.67C533.24,102.18,578.33,75.42,624,49.63c4.18-2.36,11.93-2.43,16.12-.11C667.9,64.91,695,81.59,722.72,97.09c10.59,5.91,15.17,12.78,14.54,25.53-1.31,26.32-.53,52.74-.81,79.12C736.41,205.22,735.19,208.68,734.32,213.19Z" transform="translate(-49.8 -47.82)"/><path class="cls-2" d="M782.08,693.43V133.92c4.41,1.34,8.13,1.76,11.1,3.47,24.56,14.21,48.79,29,73.56,42.83C875.14,184.91,878,190.88,878,200c-.25,122.52-1.07,245.06.22,367.57.26,24-5.14,42.5-22.32,58.68C834.76,646.1,814.5,666.85,793.68,687,791.19,689.42,787.43,690.54,782.08,693.43Z" transform="translate(-49.8 -47.82)"/></svg>