<svg id="Layer_1" data-name="Layer 1" xmlns="http://www.w3.org/2000/svg" viewBox="0 0 1442.79 389.95"><defs><style>.cls-1{fill:#0071bc;}.cls-2{fill:#29abe2;}</style></defs><title>ECL-PIC16</title><path class="cls-1" d="M470,254.07V136.91a13.64,13.64,0,0,1,13.7-13.69h81.4v22.44H496.65v28.15h51v8.75a13.64,13.64,0,0,1-13.7,13.69H496.65v33.48h68.47v24.34Z" transform="translate(-28.61 -27.28)"/><path class="cls-1" d="M608.64,254.07V136.91a13.64,13.64,0,0,1,13.7-13.69h13.31V229.73h63.91v24.34Z" transform="translate(-28.61 -27.28)"/><path class="cls-1" d="M742.7,254.07V136.91a13.62,13.62,0,0,1,13.69-13.69H837.8v22.44H769.32v28.15h51v8.75a13.64,13.64,0,0,1-13.7,13.69H769.32v33.48H837.8v24.34Z" transform="translate(-28.61 -27.28)"/><path class="cls-1" d="M978.32,238.48A42.1,42.1,0,0,1,962,252.93a55.13,55.13,0,0,1-21.68,4.19q-28.15,0-44.51-18.64Q879,220.23,879,188.27q0-31.58,16.36-49.84,17.11-19,45.27-19,24.33,0,40.32,11.8a50.15,50.15,0,0,1,18.64,32.71H981.36q-8,0-11.79-7.23a29.56,29.56,0,0,0-7.61-8.37Q954.34,143,941.8,143q-16.37,0-25.87,11.79-9.51,12.56-9.51,33.48,0,21.3,9.89,33.47,9.51,11.79,27,11.79,12.93,0,21.3-7.22,8.37-7.6,10.65-20.93h-16a13.64,13.64,0,0,1-13.7-13.69v-8.75H1000v71.13h-7.23q-10.65,0-13.31-10.65Z" transform="translate(-28.61 -27.28)"/><path class="cls-1" d="M1101,123.22h21.3l47.55,130.85h-28.53l-8.75-27h-51l-8.37,27h-28.53L1088,132Q1091.46,123.23,1101,123.22Zm6.08,26.24L1088.79,205h36.51Z" transform="translate(-28.61 -27.28)"/><path class="cls-1" d="M1214.85,254.07V136.91a13.19,13.19,0,0,1,4-9.7,14.63,14.63,0,0,1,9.7-4.37H1243L1296.26,213V122.84h26.63V254.07h-27.77l-53.64-90.15v90.15Z" transform="translate(-28.61 -27.28)"/><path class="cls-1" d="M1406,254.07V146.42h-38.8v-9.51a13.64,13.64,0,0,1,13.7-13.69h90.53v23.2H1433V254.07Z" transform="translate(-28.61 -27.28)"/><path class="cls-2" d="M380.73,217.16c8-.41,16.1-.86,24.16-1.22,2.1-.1,4.33.53,6.32.05,5.35-1.31,5.86,1.38,5.84,5.73q-.18,47.1,0,94.21c0,3.56-1.21,5.41-4.34,7.19-32,18.31-63.82,36.84-95.74,55.25-4,2.33-8.27,4.33-13.32,7V313.91c-1.4.41-2.42.45-3.13.95-21,14.75-44.16,24.7-68.77,31.55a12.33,12.33,0,0,1-3.31.63c-3.59,0-4.43,1.88-4.91,5.17-1.24,8.46,1.4,14.38,9.67,17.4a10.13,10.13,0,0,1,3.37,1.91c7.61,7,14.55,5,22.34-.36,8.29-5.74,17.45-10.22,26.93-15.66.13,2.18.32,3.85.32,5.52.05,10.09,0,20.18.14,30.26,0,3.08-.83,5.12-3.65,6.73-10.68,6.07-21.16,12.5-31.91,18.45a8,8,0,0,1-6.65.09c-17.2-9.67-34.2-19.7-51.33-29.5-3.77-2.15-5.54-4.72-5.16-9.35.55-6.63.14-13.34.36-20,.11-3.46-.75-5.2-4.67-4.66a44.59,44.59,0,0,1-9.24.21c-3-.23-4.16,1-4.13,3.89.05,5.14,0,10.28,0,16.48-5.77-3.28-10.62-6-15.46-8.79-9.66-5.56-19.12-11.51-29-16.56-5.24-2.66-11.29-3.76-17-5.57C83.55,334.75,61,322.26,40.14,306.63c-3.35-2.51-6.54-5.23-9.74-7.93A6.88,6.88,0,0,1,28.61,296c50.94,33.19,106.26,46.74,166.55,37.41,60.5-9.37,110-38.43,147.33-86.69,37-47.87,53.31-102.53,47.94-163.34,6.52,22.49,7.67,45.17,5.75,68.07a214.23,214.23,0,0,1-12.31,56.17c-1.16,3.17-2,6.44-3,9.67-.66.76-1.6,1.41-2,2.29-8.48,21.4-21.08,40.2-35.85,57.73-2.15,2.56-3.35,6.55-3.6,10-.53,7.26-.15,14.6-.15,21.91v14.38a24.43,24.43,0,0,0,4.26-1.41c11.76-6.74,23.56-13.42,35.13-20.47,1.63-1,3-3.87,3-5.88.19-25,.11-50,0-75A14.72,14.72,0,0,0,380.73,217.16Z" transform="translate(-28.61 -27.28)"/><path class="cls-1" d="M169.94,70.59c0,14.27.06,26.93-.11,39.58,0,1.1-1.29,2.58-2.37,3.22-16.87,9.83-33.76,19.63-50.77,29.21-2.66,1.5-3.55,3.05-3.53,6q.2,31.47,0,63c0,3.61.9,4.62,4.71,4.53,16.25-.39,32.51-.41,48.76-.33,1.12,0,3.15,1.9,3.18,2.95.24,9.92.12,19.84.14,29.77,0,3.2-2.08,3-4.34,3-15.78-.08-31.56,0-47.34-.2-4-.05-5.24.89-5.15,5.17.29,13.17-.14,26.35.06,39.52a7.84,7.84,0,0,0,3.08,5.73c11.64,6.94,23.51,13.49,35.27,20.24a20,20,0,0,1,3.19,2.88l-.57,1.44c-12.05-.68-24.18-.76-36.14-2.21-10.84-1.33-21.51-4.16-32.25-6.32-8-1.6-8.57-2.36-8.57-10.47q0-88.83-.09-177.66c0-3.95,1.25-6.08,4.65-8,27-15.27,53.81-30.73,80.68-46.16C164.57,74.23,166.59,72.77,169.94,70.59Z" transform="translate(-28.61 -27.28)"/><path class="cls-1" d="M285.76,89.4c-12.5-7.26-24-14.08-35.72-20.59a7,7,0,0,0-5.7.13,160.49,160.49,0,0,0-17.13,10,8.89,8.89,0,0,0-3.36,6.3q-.21,112.45.05,224.93c0,3.3-1.32,4.91-4.05,5.62-9.2,2.38-18.42,4.71-27.69,6.84-2.77.64-4.66-.35-4.57-3.84.16-6.81,0-13.62.06-20.44q0-115.63-.09-231.28c0-4.66,1.46-7.36,5.51-9.64C210.22,47.7,227.16,37.65,244.31,28a7.26,7.26,0,0,1,6.05,0c10.45,5.78,20.62,12,31,17.87,4,2.22,5.7,4.8,5.46,9.59-.49,9.89-.2,19.82-.3,29.72A27,27,0,0,1,285.76,89.4Z" transform="translate(-28.61 -27.28)"/><path class="cls-1" d="M303.7,269.82V59.63a21.3,21.3,0,0,1,4.17,1.3C317.1,66.27,326.2,71.82,335.5,77c3.16,1.76,4.22,4,4.22,7.42-.1,46-.41,92.07.08,138.09.09,9-1.93,16-8.39,22.05-7.92,7.46-15.53,15.25-23.35,22.82C307.12,268.31,305.71,268.73,303.7,269.82Z" transform="translate(-28.61 -27.28)"/><path class="cls-2" d="M630.32,346.24c-6.44,6.34-14.75,9.29-23.77,9.29-23.23,0-33.06-16-33.15-32.25s10.55-33,33.15-33a32.23,32.23,0,0,1,23,9.56l-7.86,7.59a21.49,21.49,0,0,0-15.1-5.9c-15.1,0-21.62,11.26-21.53,21.72s6.07,21.17,21.53,21.17a23,23,0,0,0,15.72-6.34Z" transform="translate(-28.61 -27.28)"/><path class="cls-2" d="M698.4,323.19c-.18,16.17-10.1,32.34-32.07,32.34s-32.17-15.81-32.17-32.25,10.55-33,32.17-33S698.58,306.84,698.4,323.19Zm-52.62.26c.26,10.28,5.8,21.27,20.55,21.27s20.28-11.08,20.46-21.36C687,312.82,681.07,301,666.33,301S645.51,312.91,645.78,323.45Z" transform="translate(-28.61 -27.28)"/><path class="cls-2" d="M761.57,308.8,741.2,336h-2.32L719,308.71v45.48h-11.8V291.65h13.58l19.57,26.89,19.57-26.89h13.49v62.54h-11.8Z" transform="translate(-28.61 -27.28)"/><path class="cls-2" d="M813.94,335.69H796.25V354.1h-11.8V291.56c9.83,0,19.66-.09,29.49-.09C844.49,291.47,844.58,335.69,813.94,335.69Zm-17.69-10.81h17.69c15.1,0,15-22.15,0-22.15H796.25Z" transform="translate(-28.61 -27.28)"/><path class="cls-2" d="M899.71,291.65v35.82c0,18.5-11.34,28-27.07,28-15,0-27.78-9.11-27.78-28V291.65h11.7v35.82c0,11.26,6.43,17.25,16.17,17.25S888,338.2,888,327.47V291.65Z" transform="translate(-28.61 -27.28)"/><path class="cls-2" d="M927.42,302.28H907.58V291.56h51.47v10.72H939.21V354.1H927.42Z" transform="translate(-28.61 -27.28)"/><path class="cls-2" d="M966.29,354.1V291.56H978V354.1Z" transform="translate(-28.61 -27.28)"/><path class="cls-2" d="M1030.17,291.47H1042V354.1h-7.33v.09l-32.88-42.26V354.1H990V291.56h9.56l30.64,38.77Z" transform="translate(-28.61 -27.28)"/><path class="cls-2" d="M1099.24,306.84a24,24,0,0,0-15.9-6.26c-13.4,0-21.53,10.19-21.53,23.05,0,10.28,6,20.91,21.53,20.91a20.78,20.78,0,0,0,14.11-5V328.46h-16V317.91h26.81v26.36c-6.17,7.06-13.94,11.26-24.93,11.26-23.5,0-33.06-15.46-33.06-31.9,0-17.6,11-33.86,33.06-33.86a33,33,0,0,1,23.23,9.56Z" transform="translate(-28.61 -27.28)"/><path class="cls-2" d="M1147.76,291.56V343.2h32.17v10.9h-44V291.56Z" transform="translate(-28.61 -27.28)"/><path class="cls-2" d="M1232.64,342.31h-32.7l-5.36,11.79h-12.77l28-62.54h12.87l28,62.54h-12.87Zm-16.35-37.62-11.61,26.63h23.23Z" transform="translate(-28.61 -27.28)"/><path class="cls-2" d="M1306,309.7c0,4.82-2.32,9.47-8.13,12.06,7.33,2.23,10,10,10,13.93,0,13.94-10.45,18.41-23.41,18.41h-29.66V291.56h29.66C1296.8,291.56,1306,297.1,1306,309.7Zm-39.58,7h18c7.42,0,9.83-3.12,9.83-6.7,0-2.86-2.33-7.68-9.83-7.68h-18Zm0,26.45h18c4.82,0,11.7-1.61,11.7-7.5,0-5.63-6.88-8.58-11.7-8.58h-18Z" transform="translate(-28.61 -27.28)"/><path class="cls-2" d="M1356.67,306.66c-2.15-3.58-8-7-14.83-7-8.76,0-13,3.66-13,8.31,0,5.45,6.43,7,13.94,7.86,13,1.61,25.19,5,25.19,19.92,0,13.94-12.33,19.93-26.26,19.93-12.78,0-22.61-3.93-27.25-15.37l9.83-5.09c2.76,6.88,10,9.92,17.6,9.92,7.41,0,14.38-2.6,14.38-9.39,0-5.89-6.17-8.31-14.47-9.2-12.78-1.52-24.57-4.91-24.57-18.94,0-12.87,12.68-18.14,24.21-18.23,9.74,0,19.83,2.77,24.57,12.42Z" transform="translate(-28.61 -27.28)"/></svg>